# xmcd
#
# Track frame offsets:
#	150
#	16620
#	31272
#	46116
#	60911
#	76557
#	86721
#	101150
#	110882
#	130075
#
# Disc length: 2044 seconds
#
# Revision: 1
# Processed by: cddbd v1.5.2PL0 Copyright (c) Steve Scherf et al.
# Submitted via: audiograbber 1.83.01
#
DISCID=6b07fa0a
DTITLE=Various Artist - Country Holiday Classics (HEB)
DYEAR=2007
DGENRE=Country
TTITLE0=Pretty Paper  - Willie Nelson
TTITLE1=O Come All Ye Faithful  - Waylon Jennings
TTITLE2=Away in a Manger  - Loretta Lynn
TTITLE3=Joy To The World - Charlie Pride
TTITLE4=What Chlid is This- - Crystal Gayle
TTITLE5=Santa Claus and Popcorn  - Merle Haggard
TTITLE6=Deck the Halls  - Loretta Lynn
TTITLE7=We Wish You a Merry Christmas  - Willie Nelson
TTITLE8=O' Little Town of Bethlehem - Mickey Gilley
TTITLE9=O' Holy Night - Larry Gatlin
EXTD=
EXTT0=
EXTT1=
EXTT2=
EXTT3=
EXTT4=
EXTT5=
EXTT6=
EXTT7=
EXTT8=
EXTT9=
PLAYORDER=
